<?xml version="1.0" standalone="no"?>
<!DOCTYPE svg PUBLIC "-//W3C//DTD SVG 20010904//EN"
 "http://www.w3.org/TR/2001/REC-SVG-20010904/DTD/svg10.dtd">
<svg version="1.0" xmlns="http://www.w3.org/2000/svg"
 width="500.000000pt" height="500.000000pt" viewBox="0 0 500.000000 500.000000"
 preserveAspectRatio="xMidYMid meet">

<g transform="translate(0.000000,500.000000) scale(0.100000,-0.100000)"
fill="#000000" stroke="none">
<path d="M2838 4162 c-5 -15 -24 -69 -40 -121 -26 -77 -29 -95 -17 -102 22
-14 32 -6 48 42 8 24 16 45 17 47 0 1 20 -5 44 -13 55 -19 60 -19 60 4 0 13
-12 22 -45 31 -50 14 -50 14 -34 58 l11 31 50 -19 c53 -20 71 -18 66 7 -2 9
-33 24 -76 38 l-73 23 -11 -26z"/>
<path d="M2262 4164 c-12 -8 -22 -10 -22 -5 0 11 -32 15 -41 6 -4 -3 14 -173
20 -192 1 -2 10 -3 22 -3 20 0 21 3 14 68 -6 57 -4 72 10 85 9 10 23 17 31 17
8 0 14 9 14 20 0 24 -18 26 -48 4z"/>
<path d="M2053 4138 c-37 -10 -73 -51 -73 -83 0 -39 21 -83 47 -100 45 -30
143 -1 143 40 0 22 -26 24 -43 4 -20 -23 -60 -25 -77 -4 -17 20 -6 32 37 39
81 15 91 30 53 78 -24 31 -45 37 -87 26z m57 -58 c0 -12 -9 -16 -47 -25 -29
-6 -33 -4 -33 15 0 25 37 42 63 28 9 -5 17 -13 17 -18z"/>
<path d="M1839 4065 c-15 -8 -29 -21 -32 -30 -4 -8 -13 -12 -22 -9 -8 3 -22 4
-30 1 -11 -5 -3 -31 42 -129 30 -68 56 -124 57 -125 1 -1 12 0 24 3 21 6 21 7
6 43 -9 20 -18 42 -21 50 -5 10 0 12 15 7 30 -10 78 18 86 49 9 36 -9 97 -36
122 -32 29 -59 34 -89 18z m54 -50 c18 -17 31 -70 22 -85 -3 -5 -15 -15 -26
-20 -42 -23 -92 73 -57 108 16 16 43 15 61 -3z"/>
<path d="M3016 4028 c-77 -122 -73 -182 10 -182 24 0 33 -4 30 -12 -5 -12 30
-31 39 -22 2 2 23 39 45 82 39 74 40 79 23 91 -19 14 -22 11 -75 -84 -19 -34
-48 -40 -68 -15 -11 13 -8 26 17 84 25 57 28 70 16 74 -21 8 -21 8 -37 -16z"/>
<path d="M2520 4025 c-18 -21 -5 -47 22 -43 26 3 37 36 16 49 -18 12 -24 11
-38 -6z"/>
<path d="M3253 3960 c-15 -23 -45 -64 -65 -92 -42 -57 -48 -96 -19 -122 18
-17 20 -17 30 2 6 12 7 22 0 29 -6 6 0 23 18 49 95 138 101 149 91 161 -16 20
-25 16 -55 -27z"/>
<path d="M1594 3926 c-37 -37 -42 -62 -20 -104 32 -61 79 -81 132 -56 50 24
70 71 50 117 -33 80 -106 99 -162 43z m111 -47 c21 -40 19 -56 -10 -75 -25
-16 -27 -16 -55 11 -37 36 -41 82 -8 94 33 12 57 2 73 -30z"/>
<path d="M3364 3904 c-10 -15 -45 -58 -76 -96 -63 -76 -69 -95 -37 -124 17
-16 22 -16 29 -4 5 8 7 22 5 31 -3 9 18 43 52 85 92 110 87 102 73 119 -17 21
-24 19 -46 -11z"/>
<path d="M1412 3888 c-7 -7 -12 -16 -12 -20 0 -5 35 -49 78 -98 80 -93 100
-104 138 -75 16 13 17 16 4 25 -8 5 -20 8 -27 6 -6 -3 -46 36 -89 85 -43 49
-78 89 -79 89 -1 0 -6 -5 -13 -12z"/>
<path d="M1370 3737 c-14 -7 -34 -29 -44 -48 -19 -36 -19 -36 0 -75 23 -43 81
-79 113 -69 39 12 81 61 81 94 0 46 -23 39 -50 -14 -9 -18 -25 -31 -39 -33
-40 -6 -43 12 -8 49 62 65 63 66 25 89 -39 23 -45 24 -78 7z m47 -43 c4 -12
-34 -64 -47 -64 -19 0 -22 42 -4 61 18 20 45 22 51 3z"/>
<path d="M3485 3725 c-31 -30 -31 -55 -3 -111 17 -36 19 -46 8 -59 -7 -8 -18
-15 -26 -15 -22 0 -54 42 -54 73 0 24 -4 28 -22 25 -30 -4 -28 -47 4 -94 40
-59 94 -70 133 -28 30 33 31 51 4 109 -23 50 -20 75 10 75 22 0 51 -35 51 -62
0 -13 8 -18 25 -18 30 0 31 9 5 60 -20 38 -62 70 -95 70 -9 0 -27 -11 -40 -25z"/>
<path d="M1240 3595 c-11 -13 -8 -22 16 -53 31 -38 67 -92 62 -92 -2 0 -36 9
-76 19 -70 19 -73 19 -82 1 -6 -10 -7 -21 -3 -23 7 -4 105 -28 170 -42 15 -4
27 2 37 16 15 23 10 34 -69 146 -34 47 -37 49 -55 28z"/>
<path d="M3617 3553 c-4 -3 -7 -15 -7 -25 0 -11 -19 -30 -50 -49 -27 -16 -52
-39 -55 -49 -7 -24 21 -80 40 -80 21 0 27 17 13 40 -12 18 -10 23 17 45 45 37
66 41 84 16 12 -15 20 -18 31 -11 13 8 13 13 2 31 -11 18 -11 24 3 39 14 15
14 19 1 29 -8 7 -24 10 -36 6 -11 -4 -20 -2 -20 4 0 12 -13 15 -23 4z"/>
<path d="M1110 3372 c-54 -54 -36 -130 36 -158 37 -14 48 -15 74 -4 17 7 37
22 45 34 15 20 21 87 9 99 -13 12 -34 -6 -34 -30 0 -38 -18 -63 -45 -63 -14 0
-25 2 -25 5 0 2 12 29 27 60 30 60 27 71 -24 81 -27 5 -37 1 -63 -24z m53 -62
c-18 -45 -27 -49 -43 -20 -15 28 4 60 35 60 23 0 23 0 8 -40z"/>
<path d="M3689 3384 c-11 -14 -11 -18 -1 -22 22 -7 42 -33 42 -53 0 -29 -23
-23 -57 16 -17 19 -40 35 -50 35 -25 0 -63 -27 -63 -45 0 -25 23 -64 40 -70
12 -4 16 -13 12 -30 -5 -27 14 -59 29 -49 5 3 9 13 9 22 0 11 20 26 60 44 45
20 61 32 66 52 7 29 -19 81 -52 103 -18 12 -23 11 -35 -3z m-26 -89 c17 -23
17 -25 -2 -35 -36 -19 -75 17 -50 46 16 20 32 17 52 -11z"/>
<path d="M1004 3190 c-32 -13 -63 -57 -80 -116 -17 -60 -15 -69 18 -77 45 -10
187 -47 202 -53 10 -4 18 9 30 49 31 107 17 154 -58 188 -44 20 -78 23 -112 9z
m116 -69 c21 -15 25 -27 24 -65 0 -25 -3 -48 -6 -51 -5 -5 -168 32 -176 40
-10 9 22 77 41 91 27 19 81 12 117 -15z"/>
<path d="M3693 3170 c-56 -34 -58 -127 -3 -155 37 -19 40 -19 40 3 0 9 -9 23
-20 30 -41 25 -17 83 41 97 38 9 63 -18 56 -62 -4 -25 -2 -36 10 -40 20 -8 33
14 33 55 0 24 -9 42 -29 63 -35 35 -81 38 -128 9z"/>
<path d="M3805 2987 c-66 -11 -122 -21 -123 -23 -2 -1 -1 -12 3 -23 6 -18 12
-20 48 -14 l42 6 -37 -41 c-64 -71 -46 -105 22 -40 39 38 44 40 64 28 48 -30
71 -40 74 -30 7 21 -8 40 -50 61 -38 19 -41 23 -22 29 11 5 46 11 77 15 51 7
57 10 57 31 0 28 5 28 -155 1z"/>
<path d="M950 2818 c0 -14 15 -36 37 -55 l38 -32 -78 -1 c-60 0 -79 -3 -84
-15 -3 -9 -3 -18 0 -22 4 -3 67 -8 142 -11 133 -5 135 -5 135 17 0 17 -6 21
-33 21 -19 0 -37 3 -40 6 -7 7 60 64 74 64 5 0 9 11 9 25 0 32 -8 31 -56 -5
-21 -16 -44 -30 -51 -30 -7 0 -28 14 -46 30 -41 36 -47 37 -47 8z"/>
<path d="M1084 2635 c-3 -8 1 -22 10 -30 22 -22 20 -62 -3 -75 -26 -14 -74
-13 -89 2 -15 15 -16 54 -2 63 7 4 6 14 -1 28 l-12 21 -18 -23 c-31 -38 -21
-106 20 -138 29 -22 96 -16 130 13 26 22 31 33 31 70 0 59 -50 112 -66 69z"/>
<path d="M3705 2592 c-24 -146 13 -202 132 -202 61 0 87 18 106 72 15 42 29
128 21 128 -10 0 -211 30 -231 35 -18 4 -22 -1 -28 -33z m146 -34 l71 -11 -7
-36 c-10 -54 -30 -71 -84 -71 -71 1 -107 39 -94 100 6 35 12 35 114 18z"/>
<path d="M1130 2455 c0 -9 -23 -21 -62 -33 -45 -13 -66 -25 -74 -41 -23 -46
27 -139 60 -112 13 11 12 15 -5 32 -22 22 -26 69 -5 69 8 0 25 -19 38 -42 27
-50 61 -60 97 -30 19 15 22 24 16 50 -3 18 -16 37 -26 43 -16 8 -18 13 -9 24
6 8 9 23 5 35 -7 23 -35 28 -35 5z m24 -87 c8 -14 7 -22 -7 -35 -18 -17 -19
-17 -38 6 -10 13 -19 30 -19 38 0 20 50 13 64 -9z"/>
<path d="M3668 2343 c-37 -43 -49 -98 -27 -120 20 -20 38 -4 32 30 -4 24 0 37
16 51 11 10 27 16 35 13 12 -5 11 -14 -5 -63 -11 -32 -16 -61 -11 -66 4 -4 22
-10 39 -14 26 -5 37 -1 57 19 71 71 24 167 -82 167 -25 0 -45 -6 -54 -17z
m128 -97 c-5 -19 -13 -26 -31 -26 -29 0 -29 0 -10 47 14 34 17 35 32 21 10
-11 13 -25 9 -42z"/>
<path d="M1187 2274 c-3 -3 -4 -19 -1 -34 6 -28 8 -27 -93 -67 -7 -3 -13 1
-13 8 0 24 -16 40 -33 33 -12 -4 -14 -11 -6 -31 12 -32 12 -30 -12 -36 -18 -5
-19 -9 -9 -27 7 -14 17 -19 27 -16 9 4 22 1 29 -5 16 -13 37 -2 30 16 -3 9 15
21 53 35 69 25 89 55 69 98 -13 26 -30 37 -41 26z"/>
<path d="M3569 2127 c-13 -29 -4 -43 79 -130 42 -45 47 -48 59 -31 11 15 6 24
-39 72 -29 31 -48 57 -42 59 5 2 39 -1 74 -6 72 -10 80 -8 80 18 0 15 -12 19
-67 25 -38 4 -83 9 -100 12 -28 5 -34 2 -44 -19z"/>
<path d="M1191 2110 c-32 -20 -33 -23 -28 -68 4 -26 9 -59 13 -74 5 -21 2 -29
-11 -35 -23 -8 -65 38 -65 73 0 17 -5 24 -20 24 -27 0 -27 -41 2 -91 54 -97
168 -56 138 50 -16 56 -13 79 12 87 30 9 58 -27 58 -77 0 -32 3 -39 20 -39 30
0 35 41 12 92 -32 73 -75 92 -131 58z"/>
<path d="M3469 1961 c-39 -39 -41 -109 -3 -94 8 3 14 15 14 28 0 25 29 55 53
55 29 0 27 -17 -8 -66 -19 -27 -35 -52 -35 -55 0 -4 16 -14 35 -23 30 -15 39
-15 62 -4 37 18 67 71 59 104 -4 14 -21 39 -39 55 -44 40 -97 40 -138 0z m134
-63 c9 -26 -12 -58 -38 -58 -30 0 -31 9 -4 44 23 29 34 33 42 14z"/>
<path d="M1337 1812 c-48 -48 -88 -90 -88 -95 0 -4 4 -14 9 -23 7 -12 19 -5
64 40 31 31 60 56 66 56 5 0 -1 -37 -14 -82 -29 -101 -29 -110 -5 -132 18 -17
23 -14 112 73 90 86 93 91 76 108 -16 17 -20 14 -82 -47 -75 -74 -77 -71 -39
62 26 88 26 91 7 109 -18 18 -20 17 -106 -69z"/>
<path d="M3350 1821 c-12 -23 3 -37 33 -33 10 2 50 -27 99 -72 64 -59 85 -73
95 -64 8 6 13 16 11 23 -2 6 -42 46 -89 88 -91 81 -128 96 -149 58z"/>
<path d="M3254 1726 c-24 -24 -34 -43 -34 -64 0 -36 37 -84 79 -102 40 -16 94
9 116 55 14 30 14 38 2 68 -34 80 -107 99 -163 43z m101 -33 c40 -44 29 -93
-21 -93 -25 0 -64 43 -64 71 0 21 26 49 45 49 8 0 26 -12 40 -27z"/>
<path d="M1577 1664 c-9 -30 -14 -61 -11 -69 4 -10 0 -12 -16 -8 -43 11 -89
-64 -62 -103 10 -14 103 -84 112 -84 9 0 150 197 150 210 0 4 -8 11 -17 15
-17 6 -32 -6 -69 -60 -14 -19 -14 -19 -36 3 -21 20 -21 25 -10 67 16 59 15 62
-7 74 -16 9 -20 4 -34 -45z m30 -132 l23 -17 -24 -30 c-23 -29 -24 -29 -50
-12 -25 17 -35 54 -19 70 12 12 48 7 70 -11z"/>
<path d="M3100 1710 c-12 -8 -12 -14 5 -47 11 -21 21 -41 23 -45 2 -5 -8 -8
-23 -8 -31 0 -75 -41 -75 -70 0 -58 58 -130 105 -130 12 0 35 12 51 27 16 15
35 28 43 29 35 6 33 24 -14 101 -26 43 -57 95 -68 116 -22 40 -25 41 -47 27z
m73 -167 c23 -39 15 -71 -19 -79 -31 -8 -60 17 -69 57 -14 64 54 80 88 22z"/>
<path d="M1777 1583 c-17 -16 -3 -34 43 -54 54 -23 56 -26 38 -64 -14 -30 -14
-30 -69 -6 -39 18 -45 18 -52 5 -10 -18 -13 -16 41 -43 44 -23 50 -36 29 -65
-13 -17 -16 -17 -67 9 -42 21 -54 24 -61 13 -14 -21 -12 -23 68 -61 l76 -36
57 117 58 117 -72 37 c-77 40 -80 41 -89 31z"/>
<path d="M2903 1518 c-49 -13 -87 -78 -45 -78 9 0 23 9 30 20 14 24 54 26 72
5 16 -19 18 -17 -52 -45 -32 -13 -58 -27 -58 -31 0 -4 12 -21 26 -38 30 -36
74 -41 114 -14 35 24 40 33 40 76 0 73 -60 123 -127 105z m87 -119 c0 -12 -37
-49 -49 -49 -5 0 -17 8 -27 17 -16 17 -15 18 22 34 38 17 54 17 54 -2z"/>
<path d="M1944 1365 c-26 -103 -29 -125 -17 -129 38 -15 53 -4 104 74 28 44
55 80 59 80 4 0 10 -43 13 -96 4 -54 8 -99 10 -100 2 -2 17 -7 34 -10 l30 -6
30 124 c17 67 30 124 29 125 0 0 -10 3 -21 5 -17 3 -23 -8 -41 -77 -24 -88
-28 -84 -39 38 -6 60 -9 67 -28 67 -16 0 -35 -20 -71 -75 -27 -42 -51 -74 -53
-72 -2 3 6 39 17 81 22 79 20 96 -8 96 -13 0 -24 -27 -48 -125z"/>
<path d="M2755 1460 c-3 -5 0 -36 6 -69 13 -63 5 -91 -27 -91 -8 0 -14 -9 -14
-20 0 -28 35 -26 54 2 9 12 16 17 16 10 0 -6 11 -12 25 -12 14 0 25 1 25 3 0
2 -6 26 -14 53 -8 27 -20 68 -26 92 -10 40 -31 55 -45 32z"/>
<path d="M2444 1405 c-4 -9 -2 -21 4 -27 16 -16 47 -5 47 17 0 26 -42 34 -51
10z"/>
</g>
</svg>
